<svg width="40" height="40" viewBox="0 0 40 40" fill="none" xmlns="http://www.w3.org/2000/svg">
<path d="M20 0C14.6957 0 9.60859 2.10714 5.85786 5.85786C2.10714 9.60859 0 14.6957 0 20C0 25.3043 2.10714 30.3914 5.85786 34.1421C9.60859 37.8929 14.6957 40 20 40C25.3043 40 30.3914 37.8929 34.1421 34.1421C37.8929 30.3914 40 25.3043 40 20C40 14.6957 37.8929 9.60859 34.1421 5.85786C30.3914 2.10714 25.3043 0 20 0ZM29.1725 28.845C28.9993 29.1266 28.7216 29.328 28.4002 29.4053C28.0788 29.4827 27.7398 29.4295 27.4575 29.2575C22.76 26.39 16.85 25.74 9.8875 27.3325C9.56493 27.4061 9.22634 27.3485 8.9462 27.1725C8.66607 26.9964 8.46735 26.7163 8.39375 26.3937C8.32015 26.0712 8.37771 25.7326 8.55376 25.4525C8.72981 25.1723 9.00993 24.9736 9.3325 24.9C16.9525 23.16 23.4875 23.9075 28.7575 27.13C29.0395 27.3028 29.2415 27.5803 29.3193 27.9018C29.397 28.2232 29.3443 28.5624 29.1725 28.845ZM31.62 23.4C31.4034 23.7523 31.0558 24.0042 30.6536 24.1003C30.2514 24.1964 29.8274 24.1288 29.475 23.9125C24.1 20.61 15.905 19.6525 9.545 21.5825C9.15789 21.6745 8.75026 21.6153 8.40527 21.4171C8.06028 21.2188 7.80392 20.8965 7.68847 20.5157C7.57303 20.1349 7.6072 19.7244 7.78402 19.368C7.96083 19.0115 8.26698 18.736 8.64 18.5975C15.9025 16.395 24.9325 17.4625 31.105 21.255C31.4577 21.4712 31.7101 21.8186 31.8067 22.2209C31.9033 22.6231 31.8361 23.0473 31.62 23.4ZM31.83 17.73C25.385 13.9 14.75 13.5475 8.595 15.415C8.12026 15.5589 7.60781 15.5083 7.17038 15.2743C6.73296 15.0404 6.40638 14.6422 6.2625 14.1675C6.11862 13.6928 6.16922 13.1803 6.40317 12.7429C6.63713 12.3055 7.03526 11.9789 7.51 11.835C14.5725 9.6925 26.3175 10.105 33.74 14.51C34.167 14.7633 34.4759 15.1758 34.5987 15.6568C34.7216 16.1379 34.6483 16.648 34.395 17.075C34.1417 17.502 33.7292 17.8109 33.2482 17.9337C32.7671 18.0566 32.257 17.9833 31.83 17.73Z" fill="black"/>
</svg>
