<svg width="46" height="40" viewBox="0 0 46 40" fill="none" xmlns="http://www.w3.org/2000/svg">
<path d="M14.4497 40C31.809 40 41.3051 24.607 41.3051 11.2815C41.309 10.8487 41.3032 10.4159 41.2879 9.98314C43.1361 8.55012 44.7316 6.777 46 4.74649C44.2724 5.5596 42.4426 6.09659 40.5691 6.34026C42.5431 5.07788 44.0214 3.09124 44.7292 0.749785C42.8757 1.92732 40.8457 2.75279 38.7291 3.18965C37.3065 1.56828 35.424 0.494161 33.3732 0.133687C31.3225 -0.226787 29.2178 0.146499 27.3853 1.19572C25.5529 2.24495 24.0948 3.91155 23.237 5.93739C22.3793 7.96322 22.1696 10.2352 22.6406 12.4015C18.8878 12.2011 15.2164 11.1582 11.8646 9.3406C8.51291 7.52302 5.55586 4.97134 3.1855 1.85126C1.98255 4.0762 1.61561 6.70757 2.15914 9.21143C2.70268 11.7153 4.11598 13.9041 6.11225 15.3336C4.61555 15.2819 3.15156 14.8517 1.84 14.0783V14.2168C1.84366 16.547 2.59848 18.8046 3.97705 20.6084C5.35563 22.4122 7.27352 23.6517 9.407 24.1178C8.59703 24.3567 7.76029 24.4757 6.92013 24.4716C6.32764 24.4782 5.7361 24.4194 5.15487 24.2962C5.75688 26.3032 6.93098 28.058 8.5124 29.3145C10.0938 30.571 12.0032 31.266 13.9725 31.302C10.6263 34.111 6.49533 35.6355 2.2425 35.631C1.49298 35.637 0.743895 35.5908 0 35.4925C4.31659 38.4384 9.33014 40.0024 14.4497 40Z" fill="black"/>
</svg>
