<svg width="57" height="40" viewBox="0 0 57 40" fill="none" xmlns="http://www.w3.org/2000/svg">
<path d="M28.6835 0H29.0006C31.9291 0.0106771 46.7679 0.117449 50.7688 1.19228C51.9783 1.52031 53.0805 2.1597 53.9651 3.04656C54.8498 3.93342 55.4859 5.03669 55.8101 6.24611C56.1699 7.59854 56.4228 9.38874 56.5938 11.2359L56.6295 11.606L56.7079 12.5314L56.7364 12.9015C56.9679 16.1545 56.9964 19.201 57 19.8665V20.1335C56.9964 20.8239 56.9644 24.0769 56.7079 27.4651L56.6794 27.8388L56.6473 28.2089C56.4692 30.2447 56.2055 32.2662 55.8101 33.7539C55.4859 34.9633 54.8498 36.0666 53.9651 36.9534C53.0805 37.8403 51.9783 38.4797 50.7688 38.8077C46.636 39.9181 30.928 39.9964 28.7512 40H28.2453C27.1444 40 22.5912 39.9786 17.8172 39.8149L17.2115 39.7936L16.9016 39.7793L16.2923 39.7544L15.6831 39.7295C11.7285 39.5551 7.96269 39.274 6.22764 38.8042C5.01855 38.4764 3.91668 37.8376 3.03206 36.9514C2.14744 36.0652 1.51103 34.9627 1.18639 33.7539C0.790924 32.2698 0.527283 30.2447 0.349147 28.2089L0.320645 27.8352L0.292143 27.4651C0.115302 25.0535 0.0178682 22.6368 0 20.2189L0 19.7811C0.00712545 19.0159 0.0356272 16.3716 0.228014 13.4532L0.252953 13.0866L0.263641 12.9015L0.292143 12.5314L0.370523 11.606L0.40615 11.2359C0.577161 9.38874 0.830114 7.59498 1.18995 6.24611C1.51405 5.03669 2.15022 3.93342 3.03487 3.04656C3.91952 2.1597 5.02168 1.52031 6.2312 1.19228C7.96625 0.729603 11.732 0.444879 15.6867 0.266927L16.2923 0.242014L16.9051 0.220661L17.2115 0.209984L17.8207 0.18507C21.2114 0.0761762 24.6035 0.015666 27.9959 0.0035592L28.6835 0ZM22.8014 11.4245V28.5719L37.6117 20.0018L22.8014 11.4245Z" fill="black"/>
</svg>
